<?xml version="1.0" encoding="UTF-8" standalone="no"?>
<!DOCTYPE svg PUBLIC "-//W3C//DTD SVG 1.1//EN"
 "http://www.w3.org/Graphics/SVG/1.1/DTD/svg11.dtd">
<!-- Generated by graphviz version 12.1.2 (20240928.0832)
 -->
<!-- Title: db Pages: 1 -->
<svg width="272pt" height="346pt"
 viewBox="0.00 0.00 271.90 345.60" xmlns="http://www.w3.org/2000/svg" xmlns:xlink="http://www.w3.org/1999/xlink">
<g id="graph0" class="graph" transform="scale(1 1) rotate(0) translate(4 341.6)">
<title>db</title>
<polygon fill="white" stroke="none" points="-4,4 -4,-341.6 267.9,-341.6 267.9,4 -4,4"/>
<!-- todos -->
<g id="node1" class="node">
<title>todos</title>
<polygon fill="#efefef" stroke="none" points="43.2,-258.8 43.2,-294.4 220.7,-294.4 220.7,-258.8 43.2,-258.8"/>
<polygon fill="none" stroke="black" points="43.2,-258.8 43.2,-294.4 220.7,-294.4 220.7,-258.8 43.2,-258.8"/>
<text text-anchor="start" x="50.2" y="-272.2" font-family="Arial Bold" font-size="18.00">todos</text>
<text text-anchor="start" x="89.21" y="-272.2" font-family="Arial" font-size="14.00">    </text>
<text text-anchor="start" x="120.32" y="-272.2" font-family="Arial" font-size="14.00" fill="#666666">[BASE TABLE]</text>
<polygon fill="none" stroke="black" points="43.2,-228 43.2,-258.8 220.7,-258.8 220.7,-228 43.2,-228"/>
<text text-anchor="start" x="50.2" y="-240.2" font-family="Arial" font-size="14.00">id </text>
<text text-anchor="start" x="64.99" y="-240.2" font-family="Arial" font-size="14.00" fill="#666666">[bigint unsigned]</text>
<polygon fill="none" stroke="black" points="43.2,-197.2 43.2,-228 220.7,-228 220.7,-197.2 43.2,-197.2"/>
<text text-anchor="start" x="50.2" y="-209.4" font-family="Arial" font-size="14.00">created_at </text>
<text text-anchor="start" x="120.25" y="-209.4" font-family="Arial" font-size="14.00" fill="#666666">[datetime(3)]</text>
<polygon fill="none" stroke="black" points="43.2,-166.4 43.2,-197.2 220.7,-197.2 220.7,-166.4 43.2,-166.4"/>
<text text-anchor="start" x="50.2" y="-178.6" font-family="Arial" font-size="14.00">updated_at </text>
<text text-anchor="start" x="124.16" y="-178.6" font-family="Arial" font-size="14.00" fill="#666666">[datetime(3)]</text>
<polygon fill="none" stroke="black" points="43.2,-135.6 43.2,-166.4 220.7,-166.4 220.7,-135.6 43.2,-135.6"/>
<text text-anchor="start" x="50.2" y="-147.8" font-family="Arial" font-size="14.00">deleted_at </text>
<text text-anchor="start" x="119.48" y="-147.8" font-family="Arial" font-size="14.00" fill="#666666">[datetime(3)]</text>
<polygon fill="none" stroke="black" points="43.2,-104.8 43.2,-135.6 220.7,-135.6 220.7,-104.8 43.2,-104.8"/>
<text text-anchor="start" x="50.2" y="-117" font-family="Arial" font-size="14.00">task </text>
<text text-anchor="start" x="79.77" y="-117" font-family="Arial" font-size="14.00" fill="#666666">[longtext]</text>
<polygon fill="none" stroke="black" points="43.2,-74 43.2,-104.8 220.7,-104.8 220.7,-74 43.2,-74"/>
<text text-anchor="start" x="50.2" y="-86.2" font-family="Arial" font-size="14.00">done </text>
<text text-anchor="start" x="85.23" y="-86.2" font-family="Arial" font-size="14.00" fill="#666666">[tinyint(1)]</text>
<polygon fill="none" stroke="black" points="43.2,-43.2 43.2,-74 220.7,-74 220.7,-43.2 43.2,-43.2"/>
<text text-anchor="start" x="50.2" y="-55.4" font-family="Arial" font-size="14.00">deadline </text>
<text text-anchor="start" x="107.03" y="-55.4" font-family="Arial" font-size="14.00" fill="#666666">[datetime(3)]</text>
</g>
</g>
</svg>
