<?xml version="1.0" encoding="UTF-8" standalone="no"?>
<!DOCTYPE svg PUBLIC "-//W3C//DTD SVG 1.1//EN"
 "http://www.w3.org/Graphics/SVG/1.1/DTD/svg11.dtd">
<!-- Generated by graphviz version 12.1.2 (20240928.0832)
 -->
<!-- Title: todos Pages: 1 -->
<svg width="278pt" height="352pt"
 viewBox="0.00 0.00 277.90 351.60" xmlns="http://www.w3.org/2000/svg" xmlns:xlink="http://www.w3.org/1999/xlink">
<g id="graph0" class="graph" transform="scale(1 1) rotate(0) translate(4 347.6)">
<title>todos</title>
<polygon fill="white" stroke="none" points="-4,4 -4,-347.6 273.9,-347.6 273.9,4 -4,4"/>
<!-- todos -->
<g id="node1" class="node">
<title>todos</title>
<polygon fill="#efefef" stroke="none" points="46.2,-261.8 46.2,-297.4 223.7,-297.4 223.7,-261.8 46.2,-261.8"/>
<polygon fill="none" stroke="black" points="46.2,-261.8 46.2,-297.4 223.7,-297.4 223.7,-261.8 46.2,-261.8"/>
<text text-anchor="start" x="53.2" y="-275.2" font-family="Arial Bold" font-size="18.00">todos</text>
<text text-anchor="start" x="92.21" y="-275.2" font-family="Arial" font-size="14.00">    </text>
<text text-anchor="start" x="123.32" y="-275.2" font-family="Arial" font-size="14.00" fill="#666666">[BASE TABLE]</text>
<polygon fill="none" stroke="black" points="46.2,-231 46.2,-261.8 223.7,-261.8 223.7,-231 46.2,-231"/>
<text text-anchor="start" x="53.2" y="-243.2" font-family="Arial" font-size="14.00">id </text>
<text text-anchor="start" x="67.99" y="-243.2" font-family="Arial" font-size="14.00" fill="#666666">[bigint unsigned]</text>
<polygon fill="none" stroke="black" points="46.2,-200.2 46.2,-231 223.7,-231 223.7,-200.2 46.2,-200.2"/>
<text text-anchor="start" x="53.2" y="-212.4" font-family="Arial" font-size="14.00">created_at </text>
<text text-anchor="start" x="123.25" y="-212.4" font-family="Arial" font-size="14.00" fill="#666666">[datetime(3)]</text>
<polygon fill="none" stroke="black" points="46.2,-169.4 46.2,-200.2 223.7,-200.2 223.7,-169.4 46.2,-169.4"/>
<text text-anchor="start" x="53.2" y="-181.6" font-family="Arial" font-size="14.00">updated_at </text>
<text text-anchor="start" x="127.16" y="-181.6" font-family="Arial" font-size="14.00" fill="#666666">[datetime(3)]</text>
<polygon fill="none" stroke="black" points="46.2,-138.6 46.2,-169.4 223.7,-169.4 223.7,-138.6 46.2,-138.6"/>
<text text-anchor="start" x="53.2" y="-150.8" font-family="Arial" font-size="14.00">deleted_at </text>
<text text-anchor="start" x="122.48" y="-150.8" font-family="Arial" font-size="14.00" fill="#666666">[datetime(3)]</text>
<polygon fill="none" stroke="black" points="46.2,-107.8 46.2,-138.6 223.7,-138.6 223.7,-107.8 46.2,-107.8"/>
<text text-anchor="start" x="53.2" y="-120" font-family="Arial" font-size="14.00">task </text>
<text text-anchor="start" x="82.77" y="-120" font-family="Arial" font-size="14.00" fill="#666666">[longtext]</text>
<polygon fill="none" stroke="black" points="46.2,-77 46.2,-107.8 223.7,-107.8 223.7,-77 46.2,-77"/>
<text text-anchor="start" x="53.2" y="-89.2" font-family="Arial" font-size="14.00">done </text>
<text text-anchor="start" x="88.23" y="-89.2" font-family="Arial" font-size="14.00" fill="#666666">[tinyint(1)]</text>
<polygon fill="none" stroke="black" points="46.2,-46.2 46.2,-77 223.7,-77 223.7,-46.2 46.2,-46.2"/>
<text text-anchor="start" x="53.2" y="-58.4" font-family="Arial" font-size="14.00">deadline </text>
<text text-anchor="start" x="110.03" y="-58.4" font-family="Arial" font-size="14.00" fill="#666666">[datetime(3)]</text>
<polygon fill="none" stroke="black" stroke-width="3" points="44.7,-44.7 44.7,-298.9 225.2,-298.9 225.2,-44.7 44.7,-44.7"/>
</g>
</g>
</svg>
